<svg id="Layer_1" data-name="Layer 1" xmlns="http://www.w3.org/2000/svg" viewBox="0 0 283.09 244.17"><defs><style>.cls-1{fill:#3354a1;}</style></defs><path class="cls-1" d="M201,205.77c0,4.43,0,8.86,0,13.28,0,1.16-.21,1.62-1.52,1.64-5.09.06-5.09.12-5.09-5,0-1.95-.07-3.9,0-5.84,0-1.08-.2-1.55-1.41-1.52-3.35.08-6.71.09-10.06,0-1.25,0-1.4.48-1.39,1.53.06,3.08,0,6.17,0,9.25,0,1.21-.29,1.59-1.56,1.6-5.09,0-5.09.08-5.09-5,0-7.85,0-15.7,0-23.54,0-1.28.27-1.72,1.65-1.71,5.08,0,5.07,0,5,5.15,0,1.88,0,3.76,0,5.64,0,.87.28,1.16,1.15,1.15,3.48,0,7-.07,10.46,0,1.2,0,1.26-.59,1.25-1.5,0-3,0-6,0-9.05,0-1,.25-1.35,1.34-1.39,5.33-.15,5.32-.19,5.29,5.11,0,3.42,0,6.84,0,10.26Z"/><path class="cls-1" d="M264.8,201.13A9.59,9.59,0,0,0,250.48,200c-.21.2-.36.59-.9.34,0-2.15,0-4.34,0-6.54,0-4.61,0-4.51-4.51-4.64-1.78-.06-2,.55-2,2.13.07,8.64,0,17.29,0,25.94,0,3.41,0,3.41,3.43,3.42,2.91,0,2.91,0,3.69-3.1.06.28,0,.65.21.82a9.67,9.67,0,0,0,14.46-1.06A14,14,0,0,0,264.8,201.13Zm-9.65,14.61c-3.31.08-5.83-2.77-5.83-6.58,0-3.59,2.41-6.35,5.57-6.39,3.4,0,6,2.73,6,6.46S258.42,215.66,255.15,215.74Z"/><path class="cls-1" d="M226.32,217.61c-2.14,2.41-4.43,3.66-7.42,3.52-3.92-.19-6.75-2.57-7.18-6.5-.58-5.27-.13-10.58-.25-15.88,0-.81.35-1.08,1.09-1h.2c5.16-.34,5.16-.34,5.19,4.8,0,2.82-.06,5.64.07,8.45.14,3.05,1.53,4.45,4.07,4.43s4.26-1.74,4.3-4.74c.05-3.75.05-7.51,0-11.26,0-1.26.26-1.74,1.66-1.73,4.72,0,4.72-.06,4.72,4.63,0,5.56,0,11.13,0,16.7,0,1.28-.28,1.86-1.64,1.68a15,15,0,0,0-2,0C226.37,220.64,226.37,220.64,226.32,217.61Z"/><path d="M163.1,190.68c0-1-.13-1.53-1.37-1.53s-1.56.42-1.52,1.62c.09,2.47,0,5,0,7.44v4.4c-4.79-5.48-11.36-6.07-15.85-1.75-4.77,4.58-4.63,13.26.19,17.72,3.44,3.18,10.68,4.43,15.68-2.41,0,1.29.06,2.16,0,3-.11,1.13.26,1.51,1.43,1.5s1.46-.3,1.46-1.45Q163,205,163.1,190.68Zm-11.39,28c-4.5-.08-8-4.06-7.94-9.12s3.62-9.07,8.26-9,8.4,4.12,8.33,9.24S156.5,218.74,151.71,218.65Z"/><path d="M27.67,221.13a17.36,17.36,0,0,1-11.12-3.69c-.79-.6-1.27-1-.37-2,.73-.78,1.09-1.26,2.15-.34a12.83,12.83,0,0,0,11.53,3.22c3-.63,4.84-2.55,5-5.23.14-2.38-1.21-4.21-4.17-5.22-2.08-.71-4.27-1.1-6.39-1.71a18.94,18.94,0,0,1-3.55-1.34,7.55,7.55,0,0,1-.5-13.18c4.21-2.74,12.41-1.94,16.07,1.46.87.8.16,1.13-.17,1.6s-.7,1.35-1.66.58a12.92,12.92,0,0,0-6.42-2.68,9.77,9.77,0,0,0-5.13.58,4.89,4.89,0,0,0-3.38,4.55,4.72,4.72,0,0,0,3,4.78,33.61,33.61,0,0,0,6.16,1.76,33.82,33.82,0,0,1,3.81,1.23c3.93,1.55,5.48,4,5.21,8.05a8.07,8.07,0,0,1-6.4,7.11A14.65,14.65,0,0,1,27.67,221.13Z"/><path d="M59,198a11.39,11.39,0,0,0-11.77,11.4c-.11,6.65,4.58,11.61,11.11,11.76a11.49,11.49,0,0,0,11.94-11.47A11.33,11.33,0,0,0,59,198Zm-.27,20.67c-4.85,0-8.53-3.82-8.54-8.94,0-5.3,3.63-9.24,8.52-9.22s8.57,3.92,8.59,9.19A8.59,8.59,0,0,1,58.72,218.67Z"/><path d="M114.28,201.75a10.11,10.11,0,0,1,6-3.66c5.85-1,10.1,2.33,10.35,8.26.18,4.35,0,8.72,0,13.07,0,1.2-.56,1.22-1.47,1.26s-1.38-.24-1.36-1.33c.07-3.82,0-7.64,0-11.46,0-4.65-2.3-7.31-6.34-7.39a7,7,0,0,0-7.31,7.18c-.12,3.82-.06,7.64,0,11.46,0,1.25-.32,1.58-1.56,1.58s-1.38-.49-1.38-1.54q.08-9.65,0-19.3c0-1.1.24-1.52,1.42-1.49s1.65.2,1.49,1.42A15.69,15.69,0,0,0,114.28,201.75Z"/><path d="M96.74,216.91c-2.23,2.88-4.84,4.43-8.35,4.26-4.38-.22-7.38-2.65-7.91-7-.6-4.94-.08-9.91-.2-14.87,0-1.2.83-.76,1.4-.82.75-.07,1.44-.11,1.42,1.06-.07,3.28,0,6.57,0,9.86,0,.67,0,1.34,0,2,.1,4.63,2.35,7.27,6.22,7.3,4.32,0,7.37-2.95,7.47-7.45.08-3.75.13-7.51,0-11.26,0-1.51.62-1.58,1.77-1.57.93,0,1.06.38,1.06,1.2,0,6.57,0,13.14,0,19.71,0,1.21-.45,1.37-1.5,1.41-1.26,0-1.47-.5-1.36-1.55C96.8,218.52,96.74,217.88,96.74,216.91Z"/><path d="M222.71,104.08v60c0,3.41,0,3.41-3.31,3.41-3.83,0-7.66-.07-11.48,0-1.54.05-1.88-.42-1.87-1.91.06-14.77,0-29.53.09-44.3,0-1.78-.44-2.24-2.23-2.23q-16.41.14-32.82,0c-1.67,0-2.09.41-2,2.09.57,19.82-10,36-28.23,43.34a42.59,42.59,0,0,1-15.93,2.95c-17.86,0-35.71,0-53.57,0-1.78,0-2.35-.59-2.29-2.34.12-3.21,0-6.44,0-9.66,0-3,.09-3.1,3-3.1q16.52,0,33,0c7.11,0,14.24.18,21.34-.13A28.64,28.64,0,0,0,153,130.53c4.22-16.34-7.26-33.1-24.31-35.48a36.47,36.47,0,0,0-5-.35c-9.93,0-19.87,0-29.8,0-10.6-.08-19.78-3.62-26.72-11.84-6.05-7.15-8-15.65-7.07-24.82C61.9,39.63,77.29,26.13,95.26,23.6a57.17,57.17,0,0,1,7.62-.53c12.08,0,24.17,0,36.25-.08,1.6,0,2.22.31,2.14,2.06-.15,3.62-.11,7.25,0,10.87.05,1.78-.61,2.33-2.35,2.32-12.62-.05-25.24-.2-37.85,0C90.41,38.44,82.18,43,77.53,52.92c-2.63,5.6-3,11.47-.23,17.12,3.26,6.76,9.14,9.59,16.39,9.67,10,.11,20-.1,30,.05,17.55.26,31,7.81,40.09,23a2,2,0,0,0,2.08,1.11c12.82,0,25.64,0,38.46,0,1.42,0,1.79-.37,1.79-1.78-.05-12.55,0-25.11,0-37.66,0-7.31.08-14.63,0-22,0-1.94.62-2.32,2.38-2.27,4.16.11,8.32.12,12.48,0,1.56-.05,1.85.42,1.84,1.88q-.08,31,0,62Z"/><path class="cls-1" d="M119.34,123.34q0-9.36,0-18.73c0-2.2.79-3.23,2.41-3.21s2.4,1,2.41,3.25q0,18.63,0,37.25c0,2.22-.8,3.2-2.45,3.19s-2.39-1-2.39-3.23q0-9.26,0-18.52Z"/><path class="cls-1" d="M113.47,123.46c0,4.22,0,8.45,0,12.67,0,1.7-.54,2.94-2.35,3.14-1.53.16-2.47-1.09-2.47-3.18,0-8.51,0-17,0-25.54,0-1.65.38-3,2.33-3.09,1.64-.09,2.5,1,2.5,3.13,0,4.29,0,8.58,0,12.87Z"/><path class="cls-1" d="M134.8,123.41c0,3.62,0,7.24,0,10.86,0,1.67-.61,2.74-2.36,2.84-1.52.08-2.45-1.07-2.46-3,0-7.3,0-14.61,0-21.91,0-1.65.63-2.77,2.4-2.78s2.45,1,2.44,2.72c0,3.75,0,7.5,0,11.25Z"/><path class="cls-1" d="M97.76,123c0-2.61,0-5.23,0-7.84,0-1.69.73-2.78,2.44-2.78s2.48,1,2.47,2.75c0,5.29,0,10.59,0,15.89,0,1.91-1,3.06-2.5,2.92-1.69-.17-2.41-1.21-2.39-2.89C97.79,128.36,97.76,125.67,97.76,123Z"/><path class="cls-1" d="M140.8,123.28v-5.23a2.41,2.41,0,1,1,4.82-.11c.06,3.62,0,7.24,0,10.86,0,1.54-.81,2.62-2.47,2.56a2.28,2.28,0,0,1-2.35-2.65c0-1.81,0-3.62,0-5.43Z"/><path class="cls-1" d="M91.89,123c0,1.21,0,2.41,0,3.61A2.18,2.18,0,0,1,89.49,129a2.13,2.13,0,0,1-2.37-2.37c0-2.4,0-4.81,0-7.22a2.15,2.15,0,0,1,2.47-2.26,2.07,2.07,0,0,1,2.24,2.27c0,1.2,0,2.4,0,3.6Z"/></svg>