<svg id="Layer_1" data-name="Layer 1" xmlns="http://www.w3.org/2000/svg" viewBox="0 0 522.04 244.17"><defs><style>.cls-1{fill:#3354a1;}</style></defs><path class="cls-1" d="M395.76,133.94c0,6.39-.05,12.79,0,19.19,0,1.67-.3,2.34-2.2,2.36-7.35.1-7.35.18-7.36-7.25,0-2.82-.09-5.63,0-8.44.05-1.56-.29-2.24-2.05-2.2-4.84.12-9.69.13-14.53,0-1.81,0-2,.7-2,2.21.07,4.46-.06,8.92,0,13.37,0,1.75-.42,2.3-2.26,2.31-7.35,0-7.35.13-7.35-7.27,0-11.34,0-22.68,0-34,0-1.84.39-2.47,2.38-2.46,7.34,0,7.33,0,7.24,7.44,0,2.72,0,5.43-.06,8.14,0,1.27.4,1.69,1.66,1.68,5-.07,10.08-.11,15.12,0,1.74,0,1.82-.84,1.81-2.16,0-4.36,0-8.72,0-13.08,0-1.48.37-2,1.94-2,7.7-.23,7.69-.28,7.64,7.38,0,4.94,0,9.88,0,14.83Z"/><path class="cls-1" d="M488,127.23a13.86,13.86,0,0,0-20.69-1.63c-.31.28-.53.85-1.31.49,0-3.11,0-6.28,0-9.46,0-6.66,0-6.51-6.51-6.7-2.58-.09-2.95.79-2.92,3.08.1,12.48.06,25,0,37.49,0,4.92,0,4.92,5,4.94,4.2,0,4.2,0,5.33-4.48.09.4,0,.94.3,1.18a14,14,0,0,0,20.9-1.53C493,144.2,493,133.59,488,127.23Zm-13.95,21.11c-4.78.12-8.42-4-8.42-9.51,0-5.18,3.48-9.17,8.05-9.23,4.91,0,8.63,3.94,8.66,9.33C482.37,144.15,478.8,148.23,474.07,148.34Z"/><path class="cls-1" d="M432.4,151.05c-3.09,3.48-6.39,5.29-10.71,5.08-5.67-.27-9.76-3.71-10.38-9.39-.84-7.62-.19-15.29-.36-23,0-1.17.51-1.56,1.58-1.48h.29c7.45-.48,7.45-.48,7.49,6.94,0,4.07-.09,8.15.1,12.21.21,4.41,2.21,6.43,5.88,6.4,3.83,0,6.17-2.51,6.22-6.84q.12-8.15,0-16.28c0-1.82.38-2.51,2.4-2.5,6.82,0,6.83-.08,6.83,6.69,0,8-.05,16.09,0,24.13,0,1.86-.4,2.69-2.36,2.43a23.53,23.53,0,0,0-2.91,0C432.48,155.43,432.48,155.43,432.4,151.05Z"/><path d="M341,112.13c0-1.49-.19-2.22-2-2.22s-2.25.61-2.19,2.35c.13,3.57,0,7.16,0,10.75v6.36c-6.92-7.92-16.42-8.78-22.91-2.53-6.89,6.62-6.69,19.16.28,25.61,5,4.59,15.43,6.4,22.66-3.49,0,1.87.09,3.13,0,4.37-.16,1.63.38,2.18,2.07,2.17s2.11-.44,2.11-2.1C341,139.64,341,125.88,341,112.13Zm-16.46,40.42c-6.5-.12-11.5-5.87-11.47-13.18s5.23-13.11,11.93-13,12.14,6,12,13.36S331.5,152.68,324.58,152.55Z"/><path d="M145.32,156.13a25.06,25.06,0,0,1-16.07-5.33c-1.15-.87-1.84-1.46-.53-2.87,1-1.14,1.57-1.83,3.1-.49,4.77,4.18,10.32,5.95,16.66,4.64,4.37-.91,7-3.68,7.22-7.56.2-3.43-1.76-6.08-6-7.53-3-1-6.18-1.59-9.24-2.48a27.06,27.06,0,0,1-5.13-1.93,10.92,10.92,0,0,1-.73-19.05c6.09-4,18-2.81,23.24,2.11,1.25,1.16.23,1.62-.25,2.32s-1,1.93-2.41.82a18.77,18.77,0,0,0-9.26-3.87,14.24,14.24,0,0,0-7.42.84,7.07,7.07,0,0,0-4.88,6.58c-.16,3.29,1.44,5.53,4.33,6.91s5.91,1.76,8.9,2.54a47.82,47.82,0,0,1,5.51,1.78c5.67,2.24,7.91,5.76,7.53,11.63-.33,4.88-4,9-9.25,10.27A20.56,20.56,0,0,1,145.32,156.13Z"/><path d="M190.58,122.7a16.47,16.47,0,0,0-17,16.48c-.16,9.61,6.62,16.78,16.06,17a16.61,16.61,0,0,0,17.25-16.58A16.38,16.38,0,0,0,190.58,122.7Zm-.39,29.88c-7,.06-12.33-5.52-12.34-12.92,0-7.66,5.25-13.36,12.31-13.33s12.39,5.67,12.42,13.28C202.59,147,197.3,152.52,190.19,152.58Z"/><path d="M270.48,128.13c2.5-2.83,5.23-4.71,8.75-5.29,8.46-1.4,14.59,3.36,15,11.94.26,6.28,0,12.59.07,18.88,0,1.74-.8,1.77-2.12,1.82-1.49.06-2-.34-2-1.91.1-5.52.05-11,0-16.57,0-6.73-3.33-10.57-9.18-10.68s-10.36,4.09-10.55,10.37c-.18,5.52-.09,11.05,0,16.57,0,1.81-.47,2.28-2.26,2.28s-2-.71-2-2.22q.11-13.95,0-27.9c0-1.58.35-2.19,2.05-2.16,1.54,0,2.38.3,2.15,2.06A23.92,23.92,0,0,0,270.48,128.13Z"/><path d="M245.14,150c-3.22,4.16-7,6.4-12.07,6.15-6.33-.31-10.67-3.83-11.44-10.18-.86-7.13-.11-14.32-.28-21.48,0-1.74,1.21-1.11,2-1.19,1.09-.11,2.09-.17,2,1.53-.1,4.75,0,9.5,0,14.25,0,1,0,1.93,0,2.9.15,6.71,3.4,10.51,9,10.56,6.25,0,10.66-4.27,10.8-10.77.12-5.42.19-10.85,0-16.27-.07-2.19.89-2.28,2.54-2.27,1.36,0,1.54.55,1.54,1.73-.05,9.5-.07,19,0,28.48,0,1.76-.65,2-2.17,2.05-1.82.07-2.13-.73-2-2.25C245.22,152.37,245.14,151.43,245.14,150Z"/><path d="M107.14,126.24v28.33c0,1.61,0,1.61-1.57,1.61-1.8,0-3.61,0-5.42,0-.72,0-.88-.2-.88-.91,0-7,0-13.94,0-20.91,0-.84-.21-1.06-1-1q-7.74.06-15.49,0c-.79,0-1,.19-1,1a20.64,20.64,0,0,1-13.33,20.45,20.2,20.2,0,0,1-7.53,1.4c-8.42,0-16.85,0-25.28,0-.84,0-1.11-.27-1.08-1.1,0-1.52,0-3,0-4.56s0-1.46,1.41-1.46H51.61c3.36,0,6.73.08,10.08-.07a13.5,13.5,0,0,0,12.53-10.26A13.68,13.68,0,0,0,62.75,122a17.06,17.06,0,0,0-2.37-.17c-4.69,0-9.38,0-14.07,0a15.82,15.82,0,0,1-12.61-5.58,15.14,15.14,0,0,1-3.34-11.72c.86-8.68,8.13-15,16.61-16.24a27.12,27.12,0,0,1,3.6-.26c5.7,0,11.41,0,17.11,0,.75,0,1,.14,1,1-.07,1.71,0,3.42,0,5.13,0,.84-.29,1.1-1.11,1.1-5.95,0-11.91-.1-17.87,0-5,.09-8.91,2.26-11.1,6.93a9.11,9.11,0,0,0-.11,8.08c1.54,3.19,4.32,4.52,7.74,4.56,4.72.05,9.44,0,14.16,0,8.29.12,14.65,3.68,18.92,10.83a1,1,0,0,0,1,.53q9.08,0,18.16,0c.66,0,.84-.17.84-.84,0-5.92,0-11.85,0-17.77,0-3.46,0-6.91,0-10.37,0-.92.29-1.09,1.12-1.07,2,0,3.93.06,5.9,0,.73,0,.87.2.87.9,0,9.76,0,19.51,0,29.27Z"/><path class="cls-1" d="M58.34,135.34V126.5c0-1,.37-1.53,1.14-1.52s1.13.49,1.14,1.54V144.1c0,1.05-.38,1.51-1.16,1.5s-1.13-.47-1.13-1.52v-8.74Z"/><path class="cls-1" d="M55.57,135.4c0,2,0,4,0,6,0,.8-.25,1.38-1.11,1.48s-1.16-.52-1.17-1.5q0-6,0-12.06c0-.78.19-1.4,1.1-1.46s1.18.47,1.19,1.48c0,2,0,4.05,0,6.08Z"/><path class="cls-1" d="M65.63,135.37c0,1.71,0,3.42,0,5.13,0,.79-.29,1.29-1.11,1.34s-1.16-.5-1.16-1.41q0-5.16,0-10.34c0-.78.3-1.31,1.13-1.31s1.16.48,1.15,1.28c0,1.77,0,3.54,0,5.31Z"/><path class="cls-1" d="M48.15,135.18c0-1.24,0-2.47,0-3.71,0-.8.34-1.31,1.14-1.31s1.18.49,1.17,1.3c0,2.5,0,5,0,7.5,0,.9-.47,1.45-1.19,1.38A1.17,1.17,0,0,1,48.15,139C48.16,137.71,48.15,136.44,48.15,135.18Z"/><path class="cls-1" d="M68.47,135.31v-2.47a1.14,1.14,0,1,1,2.27-.05q0,2.57,0,5.13c0,.72-.38,1.23-1.16,1.2a1.07,1.07,0,0,1-1.11-1.25c0-.85,0-1.71,0-2.56Z"/><path class="cls-1" d="M45.38,135.19c0,.56,0,1.13,0,1.7A1,1,0,0,1,44.24,138a1,1,0,0,1-1.11-1.12c0-1.14,0-2.27,0-3.41a1,1,0,0,1,1.16-1.07,1,1,0,0,1,1.06,1.07c0,.57,0,1.14,0,1.71Z"/></svg>